<svg width="180" height="78" viewBox="0 0 180 78" fill="none" xmlns="http://www.w3.org/2000/svg">
<path d="M17.2607 1.10822C15.375 2.941 16.275 4.81641 20.5607 7.71477C21.8893 8.60986 23.7322 10.1869 24.675 11.2525C25.6179 12.3607 26.6036 13.2131 26.8607 13.2131C27.7607 13.2131 27.8464 12.3607 27.1179 10.9967C26.6893 10.2295 26.1322 8.141 25.7893 6.39346C24.975 1.74756 23.3893 1.81198e-05 19.9607 1.81198e-05C18.8036 1.81198e-05 18.0322 0.298379 17.2607 1.10822ZM21.8893 1.74756C23.3036 2.51477 25.2322 7.80002 24.1607 7.92789C23.9036 7.97051 22.5322 7.07543 21.075 5.92461C19.1464 4.43281 18.375 3.53772 18.375 2.81313C18.375 2.30166 18.5036 1.70494 18.675 1.57707C19.1036 1.10822 20.9036 1.23608 21.8893 1.74756Z" fill="#160602"/>
<path d="M34.2321 3.23933C31.6607 4.3049 29.7321 7.79999 29.2607 12.318C29.0036 14.918 29.0893 15.3869 29.6893 15.6C30.1178 15.7705 30.8036 15.5147 31.3607 15.0033C32.7321 13.7246 34.9607 12.8721 38.0036 12.5311C40.2321 12.318 40.8321 12.0623 41.7321 10.9967C42.9321 9.54753 43.0607 8.65245 42.2036 6.69179C41.2178 4.34753 39.675 3.28195 37.1464 3.15408C35.9036 3.06884 34.575 3.11146 34.2321 3.23933ZM39.7178 6.22294C40.7464 7.28851 41.0893 8.05572 41.0036 8.86556C40.875 10.1016 40.9178 10.059 35.775 11.2524C34.1036 11.6361 32.4321 12.2328 32.0464 12.6164C31.6607 12.9574 31.2321 13.1279 31.1036 12.9147C30.6321 12.1902 31.7036 8.26884 32.775 6.73441C34.7893 3.87868 37.3178 3.70818 39.7178 6.22294Z" fill="#160602"/>
<path d="M99.6321 12.7017C99.5036 12.8722 99.4607 19.2657 99.5464 26.8952C99.6321 39.8525 99.675 40.705 100.404 40.8329C101.689 41.0886 101.946 40.0657 101.689 36.3575C101.432 33.3312 101.561 32.6066 102.375 30.9443C103.918 27.7476 106.318 26.2558 108.546 27.1083C109.704 27.5345 109.361 29.7083 107.946 31.2001C106.746 32.4361 106.575 32.4788 105.589 31.9673C104.732 31.4984 104.432 31.4984 103.875 31.9673C102.932 32.7345 103.104 33.6296 104.261 34.1411C104.818 34.3968 106.189 36.0591 107.304 37.764C109.318 40.9607 110.475 41.6427 111.718 40.4066C112.489 39.6394 112.318 38.787 111.375 38.787C110.861 38.787 109.875 37.8919 108.804 36.4427C107.861 35.164 107.089 34.0558 107.089 33.928C107.089 33.8427 107.775 33.3312 108.589 32.8198C111.375 31.1148 112.146 28.2165 110.346 26.128C109.489 25.1476 108.975 24.9345 107.304 24.9345C105.461 24.9345 105.161 25.105 103.404 26.9804C102.375 28.1312 101.518 28.8984 101.475 28.6853C101.475 28.5148 101.432 24.8066 101.389 20.4591C101.304 13.5116 101.218 12.5739 100.575 12.446C100.189 12.3607 99.7607 12.4886 99.6321 12.7017Z" fill="#160602"/>
<path d="M11.1321 16.4099C7.3607 17.5607 4.53213 21.5246 4.53213 25.5738C4.53213 27.9607 5.5607 31.1574 6.71784 32.4787C7.3607 33.2459 7.10356 34.7804 6.41784 34.3541C6.20356 34.2263 5.5607 34.5246 4.91784 34.9935C3.80356 35.8459 3.80356 35.8459 3.80356 48.9312C3.80356 63.7213 3.93213 64.4033 7.0607 66.7476C8.64642 67.9836 8.64642 67.9836 29.0464 67.9836C49.4464 67.9836 49.4464 67.9836 50.8607 66.9181C51.675 66.3213 52.7464 65.0853 53.2178 64.1476C54.1179 62.5279 54.1607 61.7607 54.2464 49.6558C54.375 35.5902 54.2893 35.0361 51.9321 34.3968C50.5607 34.0131 50.5607 34.0131 51.8464 31.5836C54.8893 25.7869 53.3893 19.6918 48.2464 16.9213C46.6178 16.0689 45.8464 15.9836 40.6607 15.9836C34.0607 15.9836 33.1607 16.282 30.675 19.223C29.175 20.9705 29.175 20.9705 27.075 18.8394C25.4036 17.0918 24.5893 16.623 22.7464 16.2394C19.7036 15.6 13.4464 15.6853 11.1321 16.4099ZM22.9607 18.1148C25.0178 18.9672 26.3893 20.2459 27.4178 22.2492C28.1464 23.6984 28.2321 24.8492 28.2321 34.0558C28.2321 43.7312 28.4464 45.5213 29.4321 44.541C29.6036 44.3705 29.8178 39.4263 29.9464 33.5017C30.1607 22.7181 30.1607 22.7181 31.3178 21.0131C32.9893 18.4984 34.9178 17.7312 40.1036 17.5607C45.2464 17.3902 47.6893 18.0722 49.6178 20.2886C52.2321 23.1869 52.3607 26.5968 50.1321 31.0295C48.8464 33.5443 48.8464 33.5443 46.1464 33.7574C42.4607 34.0558 38.3036 36.1017 34.9178 39.2558C32.3036 41.6427 29.9464 45.3082 29.9464 46.8853C29.9464 47.3115 29.6893 47.8656 29.3464 48.1213C28.8321 48.5476 28.575 48.2066 27.8464 46.2459C26.7321 43.3476 25.9607 42.0263 23.9893 39.8951C20.9036 36.6558 15.975 34.1836 11.6464 33.8C9.03213 33.5443 9.03213 33.5443 7.70356 30.6886C5.17499 25.2754 6.28927 20.7574 10.7464 18.5836C13.3607 17.305 20.3036 17.0066 22.9607 18.1148ZM17.3893 37.3377C20.7321 39 23.9036 41.941 25.7464 45.1804C27.4607 48.1213 28.2321 52.7246 28.2321 60.0984C28.2321 66.4918 28.2321 66.4918 19.1464 66.4918C10.875 66.4918 9.88927 66.4066 8.64642 65.6394C5.77499 63.9345 5.73213 63.764 5.60356 50.3377C5.51784 43.6459 5.5607 37.764 5.73213 37.2099C6.33213 34.823 12.5464 34.9082 17.3893 37.3377ZM50.6464 35.8459C52.2321 36.2722 52.2321 36.2722 52.2321 49.6131C52.2321 67.4295 53.0036 66.4918 38.7321 66.4918C29.8607 66.4918 29.8607 66.4918 30.0321 58.0525C30.1607 49.6131 30.1607 49.6131 31.7464 46.4164C35.6036 38.7017 43.9607 33.9705 50.6464 35.8459Z" fill="#160602"/>
<path d="M66.675 18.5837C66.5036 18.7542 66.375 23.8689 66.375 29.9214C66.375 40.9181 66.375 40.9181 71.0036 40.9181C73.5321 40.9181 76.3607 40.705 77.2607 40.4919C79.7464 39.9378 81.4179 38.0624 81.7179 35.5902C82.0179 32.905 81.0321 31.0296 78.7607 30.0492C77.0893 29.282 77.0893 29.282 78.5464 28.3017C80.175 27.1935 80.5607 26.3837 80.6036 23.9542C80.6036 21.9509 79.575 20.246 77.775 19.3083C76.4036 18.5837 67.275 18.0296 66.675 18.5837ZM76.875 20.6722C79.575 21.9935 80.0036 24.8919 77.775 27.1083C76.4036 28.4722 76.1893 28.5574 73.1893 28.5574C71.4321 28.5574 69.5893 28.6853 69.075 28.8132C68.0893 29.0689 68.0893 29.0263 68.0893 24.5509C68.0893 20.0328 68.0893 20.0328 71.775 20.0328C74.2179 20.0328 75.9321 20.246 76.875 20.6722ZM78.075 31.2427C81.2464 32.9902 80.9893 37.0394 77.5607 38.7443C76.1893 39.4689 75.0321 39.6394 71.9464 39.6394C68.0893 39.6394 68.0893 39.6394 68.0893 34.823C68.0893 30.0066 68.0893 30.0066 72.2893 30.1771C75.4607 30.305 76.8321 30.5607 78.075 31.2427Z" fill="#160602"/>
<path d="M89.0893 24.7213C86.3036 25.2328 84.375 26.9803 84.375 28.9836C84.375 30.3049 85.6607 30.0065 86.1322 28.6C86.7322 26.9377 88.2322 26 90.375 26C92.6893 26 93.7607 26.5967 94.4893 28.3442C95.6893 31.2 95.4322 31.541 92.2179 31.541C86.475 31.541 83.9464 33.0328 83.9464 36.3573C83.9464 38.7869 85.1464 40.3213 87.5036 40.9606C89.6893 41.5573 92.2179 40.918 93.9322 39.2983C95.0893 38.1901 95.0893 38.1901 95.0893 39.5541C95.0893 40.4918 95.3036 40.918 95.7322 40.918C96.2893 40.918 96.375 39.9377 96.375 34.6098C96.375 30.4754 96.1607 28.0032 95.8179 27.3213C94.7464 25.1901 92.0464 24.1672 89.0893 24.7213ZM94.9179 34.9082C94.7464 36.4852 94.3607 37.1672 93.1179 38.2328C91.7893 39.4262 91.1893 39.6393 89.4322 39.6393C86.2179 39.6393 84.375 37.3377 85.6607 34.9934C86.2179 33.9278 86.9893 33.6295 90.8036 33.0754C95.0464 32.3934 95.2607 32.4787 94.9179 34.9082Z" fill="#160602"/>
<path d="M131.218 24.7214C129.032 25.2328 127.832 26.2132 126.804 28.3443C125.561 30.9017 125.304 33.246 125.946 35.6328C127.532 41.2591 134.389 43.0919 138.289 39.0001C139.875 37.2951 140.175 35.7607 138.804 36.1017C138.332 36.2296 137.946 36.5705 137.946 36.8689C137.946 37.1673 137.346 37.9345 136.618 38.5312C135.632 39.3837 134.818 39.6394 133.404 39.6394C130.061 39.6394 128.046 38.0197 127.446 34.7804C127.146 33.246 127.146 33.246 133.661 33.246C140.175 33.246 140.175 33.246 139.875 31.2427C139.361 27.7476 137.646 25.4886 134.904 24.7214C133.275 24.2525 133.146 24.2525 131.218 24.7214ZM136.189 27.0656C137.475 28.1738 138.632 30.7738 138.161 31.541C137.989 31.7968 135.718 31.9673 132.546 31.9673C126.632 31.9673 126.589 31.9673 127.961 29.1115C129.418 26.0001 133.661 24.9771 136.189 27.0656Z" fill="#160602"/>
<path d="M147.375 24.6361C146.775 24.7214 145.789 25.2755 145.146 25.9148C143.946 27.023 143.946 27.023 143.946 25.8722C143.946 25.0197 143.732 24.7214 143.089 24.7214C142.275 24.7214 142.232 25.0197 142.232 32.8197C142.232 40.6197 142.275 40.9181 143.089 40.9181C143.904 40.9181 143.946 40.6197 143.946 35.3771C143.946 27.6624 144.761 26.0001 148.446 26.0001C150.375 26.0001 151.918 27.4492 152.346 29.623C152.475 30.4755 152.518 33.3738 152.389 36.0591C152.175 40.6197 152.218 40.9181 152.989 40.9181C153.761 40.9181 153.804 40.5345 153.804 35.164C153.804 28.8984 154.189 27.4919 156.032 26.4689C157.746 25.5738 160.232 26.0427 161.261 27.4066C162.075 28.5148 162.161 29.1968 162.161 34.7804C162.161 40.3214 162.246 40.9181 162.932 40.9181C163.575 40.9181 163.661 40.3214 163.661 34.3542C163.661 27.8328 163.661 27.7476 162.504 26.4263C161.904 25.7017 160.875 24.8919 160.275 24.6787C158.561 23.9968 156.075 24.6361 154.618 26.1279C153.289 27.4066 153.289 27.4066 152.389 26.2558C151.404 25.0624 149.261 24.3804 147.375 24.6361Z" fill="#160602"/>
<path d="M171.504 24.7214C168.032 25.5312 166.232 28.3443 166.232 32.8623C166.275 39.1705 170.432 42.5804 175.961 40.7476C177.932 40.1082 179.946 38.0623 179.946 36.741C179.946 35.846 178.661 36.1869 178.189 37.2099C177.204 39.341 173.389 40.3214 170.732 39.1279C169.446 38.5738 168.161 36.6132 167.732 34.6099C167.432 33.246 167.432 33.246 173.689 33.246C179.946 33.246 179.946 33.246 179.946 31.4558C179.946 29.1968 178.575 26.3837 177.075 25.5312C175.532 24.6361 173.218 24.2951 171.504 24.7214ZM176.132 26.7246C177.332 27.4492 178.446 29.1968 178.746 30.9017C178.875 31.7115 178.618 31.7541 173.218 31.882C168.975 31.9673 167.518 31.8394 167.518 31.4558C167.518 30.305 169.404 27.2361 170.432 26.6394C172.018 25.8296 174.632 25.8296 176.132 26.7246Z" fill="#160602"/>
<path d="M116.004 25.0197C115.918 25.1902 115.832 28.8131 115.875 33.0328C115.875 40.1935 115.918 40.7049 116.689 40.8328C117.889 41.0886 118.189 40.1935 117.932 36.8263C117.675 33.3312 118.361 30.7738 120.246 28.2164C121.232 26.8951 122.646 26.4263 123.161 27.2787C123.589 27.9607 125.089 27.7902 125.389 27.023C125.775 26 124.446 24.9771 122.732 24.9771C121.146 24.9771 118.918 26.6394 118.404 28.2164C117.975 29.5804 117.375 28.6 117.461 26.7246C117.546 25.3607 117.418 24.9345 116.861 24.8066C116.475 24.7213 116.089 24.8492 116.004 25.0197Z" fill="#160602"/>
<path d="M66.4607 53.7901C66.5893 65 66.5893 65 71.7321 64.9574C76.1893 64.9574 77.1321 64.8295 78.675 64.0196C81.8893 62.3574 82.875 58.3508 80.6893 55.5377C80.0893 54.7705 79.4036 54.1311 79.1036 54.1311C77.5607 54.0885 77.5178 53.3639 78.975 51.9147C80.0893 50.8065 80.5178 49.9967 80.5607 48.9737C80.6464 46.5442 80.475 45.8623 79.5321 44.8393C77.775 42.9639 76.575 42.6229 71.3036 42.6229C66.375 42.6229 66.375 42.6229 66.4607 53.7901ZM77.4321 45.0524C79.0607 46.2885 79.5321 48.2492 78.6321 50.1246C77.6893 52.1278 75.8464 52.8524 71.5178 52.8524C68.0893 52.8524 68.0893 52.8524 68.0893 48.3344C68.0893 43.7737 68.0893 43.7737 72.2036 43.9869C75.375 44.1574 76.575 44.4131 77.4321 45.0524ZM76.4464 54.6C78.9321 55.2393 80.175 56.6033 80.2607 58.777C80.2607 60.2262 80.0464 60.7803 78.8893 61.8885C77.5178 63.2524 77.475 63.2951 72.8036 63.4229C68.0893 63.5934 68.0893 63.5934 68.0893 58.8623C68.0893 54.1311 68.0893 54.1311 71.3464 54.1311C73.1036 54.1311 75.4178 54.3442 76.4464 54.6Z" fill="#160602"/>
<path d="M99.8036 53.9607C99.8036 64.4886 99.8464 65.2558 100.575 65.1279C101.218 65 101.304 64.5738 101.175 61.8033C101.004 58.8197 101.089 58.5213 102.161 57.541C102.889 56.8591 103.361 56.6459 103.575 56.9869C103.746 57.2427 105.332 59.2033 107.089 61.3345C109.446 64.1902 110.518 65.2132 111.289 65.2132C112.661 65.2132 112.789 65.4263 105.204 56.7738C104.346 55.8361 104.346 55.8361 107.132 53.3213C108.632 51.9574 110.475 50.3377 111.161 49.741C112.446 48.6328 112.446 48.6328 111.161 48.6328C110.132 48.6328 109.104 49.3574 105.846 52.4263C103.661 54.5574 101.646 56.2623 101.432 56.2623C101.175 56.2623 101.046 53.705 101.132 49.4427C101.304 43.1771 101.261 42.623 100.575 42.623C99.8464 42.623 99.8036 43.4328 99.8036 53.9607Z" fill="#160602"/>
<path d="M87.1178 49.2722C85.0607 50.2525 83.4321 53.705 85.0178 53.705C85.4036 53.705 85.8321 53.2787 86.0464 52.7246C87.4178 49.2296 93.4178 49.0591 94.6178 52.5115C95.5607 55.1541 95.4321 55.2394 91.4036 55.5804C85.0607 56.0492 83.0036 58.0525 84.2036 62.5279C84.375 63.082 85.1464 63.8919 85.9607 64.4033C88.0607 65.682 91.6178 65.3837 93.2893 63.8066C94.8321 62.3574 95.0893 62.3574 95.0893 63.9771C95.0893 64.9574 95.2607 65.2558 95.775 65.1279C96.375 65 96.4607 64.1902 96.4178 58.6492C96.3321 51.6164 95.9893 50.3378 93.8036 49.2296C92.2178 48.4197 88.8321 48.4197 87.1178 49.2722ZM95.0893 58.0099C95.0893 61.3345 92.6464 63.6361 89.175 63.6361C84.5036 63.6361 83.7321 58.0951 88.3178 57.3705C89.8607 57.1148 92.0893 56.8591 93.9321 56.7738C94.9607 56.6886 95.0893 56.8164 95.0893 58.0099Z" fill="#160602"/>
<path d="M118.746 48.8885C117.332 49.1443 114.418 52.2131 114.075 53.7049C113.904 54.6853 113.604 54.9836 112.832 54.9836C111.546 54.9836 111.418 56.4328 112.618 57.0722C113.089 57.3279 113.561 58.223 113.732 59.1181C114.375 62.6558 117.246 65.2131 120.589 65.2131C122.904 65.2131 126.375 63.2525 126.375 61.9312C126.375 61.1213 125.218 61.2492 123.804 62.2722C122.304 63.3803 119.561 63.5082 118.018 62.4853C116.904 61.7607 114.889 58.1803 115.318 57.7541C115.446 57.5836 116.389 57.7115 117.375 57.9672C119.346 58.4787 122.046 58.223 123.889 57.2853C127.661 55.3672 126.804 50.2099 122.561 49.0164C120.975 48.5902 120.461 48.5476 118.746 48.8885ZM123.375 51.659C124.704 53.0656 124.489 54.6426 122.861 55.623C121.789 56.2197 120.589 56.4328 117.932 56.4754C116.004 56.4754 114.546 56.3902 114.718 56.2623C114.889 56.1344 115.404 55.3246 115.875 54.4295C117.718 50.8918 121.361 49.5279 123.375 51.659Z" fill="#160602"/>
<path d="M130.404 50.4656C128.775 52.0852 128.604 53.0229 129.675 54.5574C130.618 55.9639 130.789 56.0492 134.218 57.3705C137.989 58.8197 138.932 60.4393 137.004 62.2295C135.504 63.5934 132.461 63.4229 130.661 61.8033C129.461 60.7377 129.118 60.6098 128.646 61.0787C127.318 62.3574 129.932 64.5738 133.318 65.0426C136.746 65.5115 140.089 63.1672 140.089 60.3541C140.089 58.2229 137.904 56.3902 133.575 55.0262C131.432 54.3443 130.832 53.5344 131.432 52.2131C132.161 50.6787 134.475 50.3803 136.489 51.5311C139.061 53.0656 140.389 51.7016 138.118 49.9115C137.261 49.2295 136.361 49.0164 134.432 49.0164C132.075 49.0164 131.732 49.1443 130.404 50.4656Z" fill="#160602"/>
<path d="M57.075 60.3968C56.775 60.5247 56.5179 61.2066 56.5179 61.9312C56.5179 65.3837 53.0036 69.3902 49.2321 70.2427C46.275 70.9247 12.0321 70.9673 8.90357 70.2853C5.51786 69.5607 1.66071 65.5115 1.66071 62.6984C1.66071 61.4197 1.18929 60.5247 0.546429 60.5247C-0.182143 60.5247 -0.182143 61.3345 0.546429 64.4886C1.23214 67.3017 3.20357 69.7312 6.16071 71.3083C7.83214 72.246 8.13214 72.246 29.0893 72.246C50.0036 72.246 50.3464 72.246 52.0179 71.3083C55.2321 69.6033 57.5893 66.2788 58.4036 62.4001C58.7036 61.0361 58.0607 60.0558 57.075 60.3968Z" fill="#160602"/>
<path d="M27.4607 74.2492C26.8179 74.8886 26.8179 76.423 27.4607 77.0623C28.275 77.8722 30.2893 77.7017 30.8036 76.764C31.4036 75.6131 31.3607 75.1869 30.5464 74.4197C29.775 73.6099 28.1893 73.5246 27.4607 74.2492Z" fill="#160602"/>
</svg>
